<svg viewBox="0 0 48 48" fill="none" xmlns="http://www.w3.org/2000/svg">
<path d="M15.4284 15.4286L16.5865 14.5921C16.2237 14.0898 15.5785 13.8786 14.9889 14.0693C14.3993 14.2599 13.9999 14.8089 13.9999 15.4286H15.4284ZM23.9999 42.5714C13.7431 42.5714 5.42843 34.2568 5.42843 24H2.57129C2.57129 35.8346 12.1652 45.4286 23.9999 45.4286V42.5714ZM42.5713 24C42.5713 34.2568 34.2567 42.5714 23.9999 42.5714V45.4286C35.8344 45.4286 45.4284 35.8346 45.4284 24H42.5713ZM23.9999 5.42855C34.2567 5.42855 42.5713 13.7433 42.5713 24H45.4284C45.4284 12.1653 35.8344 2.57141 23.9999 2.57141V5.42855ZM23.9999 2.57141C12.1652 2.57141 2.57129 12.1653 2.57129 24H5.42843C5.42843 13.7433 13.7431 5.42855 23.9999 5.42855V2.57141ZM16.857 36.8571V15.4286H13.9999V36.8571H16.857ZM14.2703 16.265L32.8419 41.9791L35.1579 40.3066L16.5865 14.5921L14.2703 16.265ZM31.1427 14V31.1428H33.9999V14H31.1427Z" fill="black"/>
</svg>
