<svg width="48" height="48" viewBox="0 0 48 48" fill="none" xmlns="http://www.w3.org/2000/svg">
<path d="M27.9961 55.44C27.2403 55.44 26.534 55.2366 25.8744 54.8848L19.1712 50.9052C18.1681 50.3473 18.671 50.144 18.9733 50.0423C20.3365 49.5888 20.5893 49.4899 21.9992 48.6873C22.1531 48.5857 22.3538 48.6324 22.5077 48.7341L27.6471 51.8122C27.8504 51.9111 28.1033 51.9111 28.2544 51.8122L48.3695 40.1675C48.5729 40.0686 48.6718 39.8652 48.6718 39.6124V16.3669C48.6718 16.1168 48.5729 15.9135 48.3695 15.8145L28.2544 4.21931C28.0538 4.11763 27.801 4.11763 27.6471 4.21931L7.52652 15.8118C7.32589 15.9107 7.2242 16.1663 7.2242 16.3642V39.6069C7.2242 39.8075 7.32589 40.0631 7.52652 40.162L13.0232 43.3418C15.9969 44.8479 17.8657 43.0807 17.8657 41.3218V18.3842C17.8657 18.0819 18.1158 17.7768 18.4704 17.7768H21.0428C21.3396 17.7768 21.6474 18.0297 21.6474 18.3842V41.3246C21.6474 45.3069 19.4818 47.6292 15.7001 47.6292C14.5403 47.6292 13.6333 47.6292 11.0609 46.365L5.77033 43.3446C5.12573 42.9699 4.59078 42.4325 4.21893 41.7862C3.84709 41.14 3.65138 40.4074 3.65137 39.6618V16.4164C3.65137 14.9048 4.45663 13.4922 5.77033 12.7364L25.8771 1.09171C26.5299 0.742633 27.2586 0.559998 27.9988 0.559998C28.7391 0.559998 29.4678 0.742633 30.1206 1.09171L50.2301 12.7364C51.5466 13.4894 52.3491 14.9048 52.3491 16.4164V39.6618C52.3491 41.1707 51.5438 42.5833 50.2301 43.3446L30.1206 54.9865C29.4582 55.2888 28.7024 55.44 27.9961 55.44ZM34.1963 39.4557C25.3742 39.4557 23.5603 35.4211 23.5603 31.9967C23.5603 31.6944 23.8131 31.3893 24.1649 31.3893H26.7868C27.0892 31.3893 27.3392 31.59 27.3392 31.895C27.7433 34.5637 28.9003 35.8774 34.2486 35.8774C38.481 35.8774 40.3004 34.9155 40.3004 32.6481C40.3004 31.3371 39.7919 30.3807 33.1905 29.7266C27.6965 29.1769 24.2694 27.9594 24.2694 23.5758C24.2694 19.4946 27.6965 17.0733 33.446 17.0733C39.8964 17.0733 43.0735 19.2967 43.4747 24.131C43.4699 24.2941 43.4163 24.4521 43.3208 24.5845C43.2191 24.6834 43.0707 24.7851 42.9195 24.7851H40.3004C40.1709 24.7823 40.0461 24.7365 39.9455 24.6549C39.845 24.5733 39.7745 24.4605 39.7452 24.3344C39.1378 21.5531 37.5768 20.6516 33.446 20.6516C28.8041 20.6516 28.2489 22.2649 28.2489 23.4741C28.2489 24.9335 28.9003 25.387 35.1583 26.195C41.3585 27.0002 44.2827 28.16 44.2827 32.4997C44.2278 36.9382 40.6027 39.4557 34.1963 39.4557Z" fill="black"/>
</svg>
