<svg width="48" height="48" viewBox="0 0 48 48" fill="none" xmlns="http://www.w3.org/2000/svg">
<path d="M18 18L19.3511 17.0242C18.9279 16.4381 18.1751 16.1918 17.4872 16.4142C16.7994 16.6366 16.3333 17.2771 16.3333 18H18ZM28 49.6667C16.0338 49.6667 6.33333 39.9663 6.33333 28H3C3 41.807 14.1929 53 28 53V49.6667ZM49.6667 28C49.6667 39.9663 39.9663 49.6667 28 49.6667V53C41.807 53 53 41.807 53 28H49.6667ZM28 6.33333C39.9663 6.33333 49.6667 16.0338 49.6667 28H53C53 14.1929 41.807 3 28 3V6.33333ZM28 3C14.1929 3 3 14.1929 3 28H6.33333C6.33333 16.0338 16.0338 6.33333 28 6.33333V3ZM19.6667 43V18H16.3333V43H19.6667ZM16.6489 18.9758L38.3157 48.9757L41.0177 47.0243L19.3511 17.0242L16.6489 18.9758ZM36.3333 16.3333V36.3333H39.6667V16.3333H36.3333Z" fill="black"/>
</svg>
