<svg width="48" height="48" viewBox="0 0 48 48" fill="none" xmlns="http://www.w3.org/2000/svg">
<path d="M23.9968 47.52C23.349 47.52 22.7436 47.3457 22.1782 47.0441L16.4326 43.633C15.5728 43.1548 16.0039 42.9805 16.263 42.8934C17.4314 42.5047 17.6481 42.4199 18.8566 41.732C18.9885 41.6448 19.1605 41.6849 19.2924 41.772L23.6976 44.4104C23.8719 44.4952 24.0887 44.4952 24.2182 44.4104L41.4597 34.4293C41.634 34.3445 41.7188 34.1701 41.7188 33.9534V14.0288C41.7188 13.8144 41.634 13.6401 41.4597 13.5553L24.2182 3.61654C24.0463 3.52938 23.8295 3.52938 23.6976 3.61654L6.45144 13.5529C6.27947 13.6377 6.19231 13.8568 6.19231 14.0264V33.9487C6.19231 34.1207 6.27947 34.3398 6.45144 34.4246L11.1629 37.1501C13.7117 38.4411 15.3136 36.9263 15.3136 35.4187V15.7579C15.3136 15.4988 15.528 15.2373 15.8319 15.2373H18.0368C18.2913 15.2373 18.5551 15.454 18.5551 15.7579V35.421C18.5551 38.8345 16.6988 40.825 13.4573 40.825C12.4632 40.825 11.6858 40.825 9.48089 39.7414L4.94614 37.1525C4.39362 36.8313 3.93509 36.3707 3.61637 35.8168C3.29764 35.2628 3.12989 34.6349 3.12988 33.9958V14.0712C3.12988 12.7756 3.82011 11.5647 4.94614 10.9169L22.1805 0.935735C22.74 0.636525 23.3647 0.47998 23.9992 0.47998C24.6336 0.47998 25.2583 0.636525 25.8178 0.935735L43.0545 10.9169C44.1829 11.5624 44.8708 12.7756 44.8708 14.0712V33.9958C44.8708 35.2891 44.1806 36.5 43.0545 37.1525L25.8178 47.1313C25.25 47.3904 24.6022 47.52 23.9968 47.52ZM29.3113 33.8192C21.7494 33.8192 20.1947 30.361 20.1947 27.4257C20.1947 27.1666 20.4114 26.9051 20.7129 26.9051H22.9603C23.2194 26.9051 23.4338 27.0771 23.4338 27.3386C23.7801 29.626 24.7718 30.752 29.356 30.752C32.9838 30.752 34.5433 29.9275 34.5433 27.984C34.5433 26.8604 34.1075 26.0406 28.4491 25.4799C23.74 25.0088 20.8024 23.9652 20.8024 20.2078C20.8024 16.7096 23.74 14.6342 28.6682 14.6342C34.197 14.6342 36.9202 16.54 37.2642 20.6837C37.2601 20.8235 37.2141 20.9589 37.1323 21.0724C37.0451 21.1572 36.9179 21.2443 36.7883 21.2443H34.5433C34.4324 21.242 34.3253 21.2027 34.2392 21.1328C34.153 21.0628 34.0926 20.9661 34.0675 20.858C33.5469 18.474 32.2088 17.7014 28.6682 17.7014C24.6894 17.7014 24.2135 19.0842 24.2135 20.1207C24.2135 21.3716 24.7718 21.7602 30.1358 22.4528C35.4503 23.1431 37.9568 24.1372 37.9568 27.8568C37.9096 31.6613 34.8025 33.8192 29.3113 33.8192Z" fill="black"/>
</svg>
