<svg width="48" height="48" viewBox="0 0 48 48" fill="none" xmlns="http://www.w3.org/2000/svg">
<path d="M28.0002 2.23999C13.8011 2.23999 2.24023 13.7904 2.24023 28C2.24023 42.1992 13.8011 53.76 28.0002 53.76C42.1994 53.76 53.7602 42.1992 53.7602 28C53.7602 13.7904 42.1994 2.23999 28.0002 2.23999ZM4.83701 28C4.83701 24.645 5.55372 21.4561 6.84172 18.5789L17.8936 48.8469C10.1656 45.0868 4.83701 37.1614 4.83701 28ZM28.0002 51.1632C25.7255 51.1632 23.5338 50.8308 21.4564 50.218L28.4053 30.0255L35.5205 49.5324C35.5724 49.6467 35.6244 49.7506 35.6867 49.8544C33.2873 50.6958 30.7009 51.1632 28.0002 51.1632ZM31.1891 17.1455C32.5809 17.0728 33.8378 16.9273 33.8378 16.9273C35.0842 16.7819 34.9388 14.9434 33.6924 15.0161C33.6924 15.0161 29.9426 15.307 27.5224 15.307C25.2477 15.307 21.4252 15.0161 21.4252 15.0161C20.1787 14.9434 20.0333 16.8546 21.2798 16.9273C21.2798 16.9273 22.4639 17.0728 23.7104 17.1455L27.3147 27.034L22.2458 42.2303L13.8115 17.1455C15.2033 17.0728 16.4602 16.9273 16.4602 16.9273C17.7066 16.7819 17.5612 14.9434 16.3148 15.0161C16.3148 15.0161 12.565 15.307 10.1448 15.307C9.70856 15.307 9.19959 15.2966 8.64907 15.2758C12.7935 8.9916 19.9087 4.83676 28.0002 4.83676C34.0247 4.83676 39.5195 7.1427 43.6432 10.9132C43.5393 10.9028 43.4458 10.8924 43.342 10.8924C41.0672 10.8924 39.4572 12.8764 39.4572 15.0057C39.4572 16.917 40.5582 18.527 41.732 20.4382C42.6149 21.9755 43.6432 23.9594 43.6432 26.8262C43.6432 28.8102 42.8849 31.1057 41.8774 34.3153L39.5715 42.033L31.1891 17.1455ZM39.6442 48.0159L46.7178 27.5637C48.0369 24.2606 48.4836 21.6223 48.4836 19.2644C48.4836 18.4127 48.4317 17.6233 48.3278 16.8858C50.1351 20.1889 51.1635 23.9698 51.1635 28C51.1635 36.5486 46.5308 44.0065 39.6442 48.0159Z" fill="black"/>
</svg>
