<svg width="48" height="48" viewBox="0 0 48 48" fill="none" xmlns="http://www.w3.org/2000/svg">
<path d="M23.9999 1.91998C11.8292 1.91998 1.91992 11.8204 1.91992 24C1.91992 36.1707 11.8292 46.08 23.9999 46.08C36.1706 46.08 46.0799 36.1707 46.0799 24C46.0799 11.8204 36.1706 1.91998 23.9999 1.91998ZM4.14573 24C4.14573 21.1242 4.76005 18.391 5.86405 15.9248L15.3371 41.8688C8.71308 38.6458 4.14573 31.8526 4.14573 24ZM23.9999 43.8542C22.0501 43.8542 20.1715 43.5693 18.3909 43.044L24.3471 25.7361L30.4459 42.4564C30.4904 42.5543 30.5349 42.6433 30.5883 42.7324C28.5317 43.4535 26.3148 43.8542 23.9999 43.8542ZM26.7332 14.6961C27.9262 14.6338 29.0035 14.5091 29.0035 14.5091C30.0719 14.3845 29.9473 12.8086 28.8789 12.871C28.8789 12.871 25.6648 13.1202 23.5904 13.1202C21.6406 13.1202 18.3642 12.871 18.3642 12.871C17.2958 12.8086 17.1711 14.4468 18.2395 14.5091C18.2395 14.5091 19.2545 14.6338 20.3229 14.6961L23.4123 23.172L19.0675 36.1974L11.8381 14.6961C13.0311 14.6338 14.1084 14.5091 14.1084 14.5091C15.1768 14.3845 15.0522 12.8086 13.9838 12.871C13.9838 12.871 10.7697 13.1202 8.69528 13.1202C8.32134 13.1202 7.88508 13.1113 7.41321 13.0935C10.9656 7.70708 17.0643 4.14579 23.9999 4.14579C29.1638 4.14579 33.8736 6.12231 37.4082 9.35418C37.3191 9.34527 37.239 9.33637 37.15 9.33637C35.2002 9.33637 33.8202 11.0369 33.8202 12.862C33.8202 14.5002 34.7639 15.8802 35.77 17.5184C36.5268 18.8361 37.4082 20.5366 37.4082 22.9939C37.4082 24.6944 36.7582 26.662 35.8946 29.4131L33.9181 36.0282L26.7332 14.6961ZM33.9804 41.1565L40.0435 23.626C41.1742 20.7948 41.5571 18.5334 41.5571 16.5124C41.5571 15.7823 41.5126 15.1057 41.4235 14.4735C42.9727 17.3048 43.8541 20.5455 43.8541 24C43.8541 31.3273 39.8833 37.7199 33.9804 41.1565Z" fill="black"/>
</svg>