<svg width="48" height="48" viewBox="0 0 48 48" fill="none" xmlns="http://www.w3.org/2000/svg">
<path d="M56 27.2743C56 23.5645 51.3543 20.0488 44.2316 17.8686C45.8752 10.6089 45.1446 4.83311 41.9258 2.98394C41.1838 2.5502 40.3163 2.34472 39.3689 2.34472V4.89018C39.8939 4.89018 40.3163 4.99292 40.6702 5.18696C42.2226 6.07731 42.896 9.46743 42.371 13.8278C42.2455 14.9008 42.0399 16.0308 41.7888 17.1837C39.5516 16.6358 37.1089 16.2134 34.5406 15.9395C32.9996 13.8278 31.4015 11.9102 29.792 10.2322C33.5132 6.7736 37.0062 4.87877 39.3804 4.87877V2.33331C36.2413 2.33331 32.1321 4.57058 27.9771 8.45155C23.8222 4.5934 19.713 2.37898 16.574 2.37898V4.92443C18.9368 4.92443 22.4411 6.80783 26.1623 10.2436C24.5642 11.9216 22.9662 13.8278 21.448 15.9395C18.8683 16.2134 16.4256 16.6358 14.1883 17.1951C13.9258 16.0537 13.7318 14.9464 13.5948 13.8849C13.0583 9.52451 13.7203 6.13438 15.2613 5.23262C15.6037 5.02715 16.0489 4.93584 16.574 4.93584V2.39039C15.6152 2.39039 14.7476 2.59586 13.9943 3.0296C10.7868 4.87877 10.0677 10.6431 11.7228 17.88C4.62292 20.0716 0 23.576 0 27.2743C0 30.9838 4.64574 34.4997 11.7684 36.6797C10.1248 43.9394 10.8553 49.7154 14.0742 51.5645C14.8162 51.9983 15.6837 52.2036 16.6425 52.2036C19.7815 52.2036 23.8908 49.9664 28.0457 46.0854C32.2005 49.9436 36.3099 52.1579 39.4487 52.1579C40.4077 52.1579 41.2753 51.9526 42.0285 51.5188C45.2361 49.6696 45.9552 43.9054 44.3 36.6683C51.3772 34.4883 56 30.9726 56 27.2743ZM41.1383 19.6607C40.716 21.1331 40.1907 22.6513 39.5971 24.1693C39.1293 23.2563 38.6384 22.3431 38.1019 21.4299C37.5769 20.5168 37.0176 19.6264 36.4583 18.7589C38.0791 18.9986 39.6429 19.2954 41.1383 19.6607ZM35.9102 31.8173C35.0201 33.3582 34.1068 34.8191 33.1595 36.1776C31.4587 36.326 29.7351 36.4058 28 36.4058C26.2764 36.4058 24.5527 36.326 22.8634 36.189C21.916 34.8306 20.9914 33.3811 20.1011 31.8514C19.2336 30.3562 18.446 28.8381 17.7269 27.3084C18.4346 25.7789 19.2336 24.2494 20.0897 22.754C20.98 21.2131 21.8932 19.752 22.8406 18.3936C24.5413 18.2453 26.2649 18.1654 28 18.1654C29.7236 18.1654 31.4473 18.2453 33.1366 18.3822C34.0839 19.7406 35.0086 21.1902 35.8988 22.7198C36.7663 24.2151 37.5541 25.7331 38.2732 27.2629C37.5541 28.7924 36.7663 30.3219 35.9102 31.8173ZM39.5971 30.3333C40.2136 31.8628 40.7386 33.3923 41.1724 34.8763C39.6772 35.2415 38.1019 35.5497 36.4695 35.7896C37.0288 34.9106 37.5884 34.0088 38.1134 33.0843C38.6384 32.171 39.1293 31.2466 39.5971 30.3333ZM28.0229 42.5126C26.9612 41.4169 25.8998 40.1956 24.8495 38.86C25.8769 38.9057 26.9271 38.9398 27.9886 38.9398C29.0617 38.9398 30.1231 38.9172 31.1619 38.86C30.1345 40.1956 29.0729 41.4169 28.0229 42.5126ZM19.5304 35.7896C17.9095 35.5497 16.3457 35.2529 14.8504 34.8877C15.2727 33.4152 15.7978 31.8971 16.3914 30.379C16.8594 31.2921 17.3502 32.2053 17.8867 33.1184C18.4232 34.0316 18.971 34.922 19.5304 35.7896ZM27.9657 12.0357C29.0274 13.1315 30.0888 14.3529 31.139 15.6884C30.1117 15.6427 29.0617 15.6085 28 15.6085C26.9271 15.6085 25.8655 15.6313 24.8267 15.6884C25.854 14.3529 26.9157 13.1315 27.9657 12.0357ZM19.519 18.7589C18.9596 19.6378 18.4003 20.5396 17.8752 21.4642C17.3502 22.3773 16.8594 23.2905 16.3914 24.2036C15.775 22.6741 15.2499 21.1446 14.8162 19.6607C16.3114 19.3068 17.8867 18.9986 19.519 18.7589ZM9.18876 33.05C5.14799 31.3264 2.53405 29.0663 2.53405 27.2743C2.53405 25.4821 5.14799 23.2106 9.18876 21.4984C10.1704 21.0761 11.2434 20.6994 12.3506 20.3455C13.0012 22.5828 13.8573 24.9113 14.9189 27.2969C13.8687 29.6713 13.0241 31.9883 12.3848 34.2143C11.2548 33.8604 10.1818 33.4723 9.18876 33.05ZM15.3298 49.3614C13.7774 48.471 13.104 45.0809 13.629 40.7206C13.7546 39.6475 13.9601 38.5175 14.2112 37.3648C16.4484 37.9127 18.8912 38.335 21.4594 38.6089C23.0004 40.7206 24.5985 42.6381 26.208 44.3163C22.4868 47.7747 18.9939 49.6696 16.6197 49.6696C16.106 49.6582 15.6722 49.5555 15.3298 49.3614ZM42.4053 40.6634C42.9417 45.024 42.2798 48.4141 40.7386 49.3157C40.3963 49.5212 39.9511 49.6125 39.4261 49.6125C37.0631 49.6125 33.5589 47.7292 29.8377 44.2934C31.4358 42.6155 33.0339 40.7092 34.552 38.5975C37.1317 38.3236 39.5745 37.9012 41.8117 37.3419C42.0742 38.4948 42.2798 39.602 42.4053 40.6634ZM46.7999 33.05C45.8183 33.4723 44.7452 33.8489 43.638 34.2029C42.9875 31.9657 42.1314 29.637 41.0697 27.2514C42.1199 24.877 42.9646 22.56 43.6037 20.3341C44.7337 20.688 45.8068 21.0761 46.8113 21.4984C50.852 23.222 53.466 25.4821 53.466 27.2743C53.4546 29.0663 50.8405 31.3378 46.7999 33.05Z" fill="black"/>
<path d="M27.9886 32.4907C30.8695 32.4907 33.205 30.1553 33.205 27.2743C33.205 24.3931 30.8695 22.0577 27.9886 22.0577C25.1076 22.0577 22.7721 24.3931 22.7721 27.2743C22.7721 30.1553 25.1076 32.4907 27.9886 32.4907Z" fill="black"/>
</svg>
