<svg width="48" height="48" viewBox="0 0 48 48" fill="none" xmlns="http://www.w3.org/2000/svg">
<path fill-rule="evenodd" clip-rule="evenodd" d="M37.5943 15.6387C37.26 15.9863 36.9005 16.3045 36.52 16.5912C37.4597 17.2425 38.2739 18.0675 38.9155 19.0277C39.9206 20.532 40.4571 22.3005 40.4571 24.1097C40.4571 25.311 40.2205 26.5005 39.7608 27.6103C39.3011 28.7201 38.6273 29.7285 37.7779 30.5779C36.9285 31.4274 35.9201 32.1012 34.8103 32.5609C33.7004 33.0206 32.5109 33.2572 31.3097 33.2572C29.5005 33.2572 27.7319 32.7207 26.2276 31.7155C26.0468 31.5947 25.8708 31.4678 25.6998 31.3351V38.6331C25.6962 41.0253 24.7443 43.3185 23.0528 45.01C21.3612 46.7016 19.068 47.6535 16.6758 47.6571C15.4603 47.7045 14.2477 47.506 13.1107 47.0735C11.9737 46.641 10.9357 45.9834 10.0589 45.1402C9.18213 44.2969 8.48462 43.2853 8.00817 42.166C7.53172 41.0467 7.28613 39.8427 7.28613 38.6263C7.28613 37.4098 7.53172 36.2058 8.00817 35.0865C8.48462 33.9672 9.18213 32.9556 10.0589 32.1124C10.3991 31.7852 10.7636 31.4859 11.1487 31.2169C10.8102 30.9628 10.4881 30.6837 10.1853 30.3809C8.49301 28.6886 7.54227 26.3933 7.54227 24C7.54227 21.6067 8.49301 19.3114 10.1853 17.6191C10.5761 17.2283 10.999 16.8771 11.4479 16.568C11.0787 16.2873 10.7296 15.977 10.4043 15.6387C8.78495 13.955 7.88044 11.7098 7.88044 9.37375C7.88044 7.03774 8.78495 4.79247 10.4043 3.10881C12.0236 1.42514 14.2319 0.433876 16.5662 0.342896H23.9994H31.4325C33.7667 0.433876 35.975 1.42514 37.5943 3.10881C39.2137 4.79247 40.1182 7.03774 40.1182 9.37375C40.1182 11.7098 39.2137 13.955 37.5943 15.6387ZM22.2858 3.77147H16.5662C15.1283 3.84263 13.7728 4.46393 12.7803 5.50676C11.7878 6.54959 11.2343 7.93412 11.2343 9.37375C11.2343 10.8134 11.7878 12.1979 12.7803 13.2407C13.7727 14.2834 15.1279 14.9047 16.5655 14.976L16.5663 14.976L16.5767 14.976H22.2018L22.2858 3.77147ZM25.6032 14.976L25.6872 3.77147H31.4325C32.8703 3.84263 34.2258 4.46393 35.2183 5.50676C36.2108 6.54959 36.7643 7.93412 36.7643 9.37375C36.7643 10.8134 36.2108 12.1979 35.2183 13.2407C34.2609 14.2467 32.9657 14.8604 31.5846 14.9664C31.3262 14.9587 31.0672 14.9618 30.8085 14.976H25.6032ZM22.1754 18.4046V23.6191C22.1578 23.9463 22.1579 24.2739 22.1754 24.6002V29.5954H16.6851L16.6758 29.5954C16.5472 29.5904 16.4185 29.5881 16.29 29.5886C14.9066 29.5203 13.5937 28.9406 12.6097 27.9566C11.5604 26.9072 10.9708 25.484 10.9708 24C10.9708 22.516 11.5604 21.0928 12.6097 20.0434C13.6588 18.9943 15.0817 18.4048 16.5654 18.4046L16.5662 18.4046H22.1754ZM25.7017 25.2442C25.6532 25.0012 25.6206 24.7563 25.604 24.511V23.736C25.6457 23.1211 25.7868 22.5137 26.0248 21.9381C26.4573 20.8923 27.1903 19.9984 28.131 19.3694C29.0677 18.7431 30.1684 18.4075 31.2949 18.4046H31.3245C32.8335 18.4085 34.2801 19.0087 35.3487 20.0748C36.4208 21.1443 37.0249 22.5954 37.0285 24.1097C37.0313 25.2414 36.6982 26.3484 36.0714 27.2907C35.4447 28.233 34.5525 28.9681 33.5077 29.403C32.463 29.838 31.3127 29.9532 30.2024 29.7341C29.0922 29.515 28.0719 28.9714 27.2707 28.1721C26.4695 27.3729 25.9235 26.3539 25.7017 25.2442ZM16.641 33.024C15.5432 33.0281 14.4704 33.3544 13.5558 33.9626C12.6316 34.5773 11.9105 35.4524 11.4839 36.4771C11.0573 37.5018 10.9442 38.63 11.1591 39.719C11.374 40.808 11.9071 41.8087 12.691 42.5945C13.4749 43.3803 14.4743 43.9159 15.5628 44.1335C16.6512 44.351 17.7797 44.2407 18.8055 43.8166C19.8312 43.3925 20.708 42.6735 21.325 41.7508C21.9419 40.8281 22.2713 39.7431 22.2713 38.6331V33.024H16.641Z" fill="black"/>
</svg>
