<svg xmlns="http://www.w3.org/2000/svg" viewBox="0 0 128 128" width="48" height="48">
    <path fill="#777BB3" d="M64 0C28.7 0 0 28.7 0 64s28.7 64 64 64 64-28.7 64-64S99.3 0 64 0zm26.4 83.3c-2.2 1.3-6.5 2.5-12.1 2.5-12.7 0-19.6-9.1-19.6-21.7 0-14.5 9-23.7 23-23.7 4.9 0 8.7 1 10.4 1.8l-2 7.7c-2.3-1.1-5.1-1.7-8.3-1.7-8.8 0-13.8 6.3-13.8 15.6 0 7.8 4 14.1 12 14.1 3.5 0 6.6-1.1 7.9-1.9l2.5 7.3zm-59.9-7.2c-3.1 3.5-7.3 5.4-12.3 5.4-6.3 0-9.8-3.4-9.8-8.8 0-6.7 5.7-10.7 15.6-12.1l6.4-.9v-3.3c0-4.1-2.4-6.4-7.4-6.4-3.7 0-7.3 1.3-9.5 2.6l-2-6.5c2.8-1.7 7.7-3.3 13-3.3 9.4 0 14.3 4.6 14.3 12.9v21.5c0 3.3.4 6.3 1.1 8.3h-8.8c-.3-1.2-.5-2.7-.6-4.2zm6.6-10.9l-5.6.9c-5.7 1-8.3 3-8.3 6.6 0 2.8 1.9 4.3 4.9 4.3 3.6 0 7.2-2.3 9-5.7v-6.1zm-40.8 19l-1.9-6.3c2.1 1.1 5.4 2 9 2 4 0 6.1-2.1 6.1-5.6V42.7h9.3v31.7c0 8.8-5.3 13.9-14.2 13.9-4.7 0-9.2-1.3-11.3-2.2z"/>
</svg>