<svg width="48" height="48" viewBox="0 0 48 48" fill="none" xmlns="http://www.w3.org/2000/svg">
<path d="M48 23.378C48 20.1982 44.018 17.1847 37.9128 15.3159C39.3216 9.09336 38.6954 4.14268 35.9364 2.55768C35.3004 2.1859 34.5568 2.00978 33.7448 2.00978V4.1916C34.1948 4.1916 34.5568 4.27966 34.8602 4.44598C36.1908 5.20914 36.768 8.11496 36.318 11.8524C36.2104 12.7721 36.0342 13.7407 35.819 14.7289C33.9014 14.2593 31.8076 13.8973 29.6062 13.6625C28.2854 11.8524 26.9156 10.2087 25.536 8.77048C28.7256 5.80596 31.7196 4.18182 33.7546 4.18182V2C31.064 2 27.5418 3.91766 23.9804 7.2442C20.419 3.93722 16.8969 2.03914 14.2063 2.03914V4.22096C16.2316 4.22096 19.2352 5.8353 22.4248 8.78026C21.055 10.2185 19.6853 11.8524 18.384 13.6625C16.1729 13.8973 14.0791 14.2593 12.1614 14.7387C11.9364 13.7603 11.7701 12.8113 11.6527 11.9013C11.1928 8.16388 11.7603 5.25806 13.0811 4.48512C13.3746 4.309 13.7562 4.23074 14.2063 4.23074V2.04892C13.3844 2.04892 12.6408 2.22504 11.9951 2.59682C9.24582 4.18182 8.62944 9.1227 10.0481 15.3257C3.9625 17.2042 0 20.208 0 23.378C0 26.5576 3.98206 29.5712 10.0872 31.4398C8.67836 37.6624 9.30452 42.6132 12.0636 44.1982C12.6996 44.57 13.4431 44.746 14.265 44.746C16.9556 44.746 20.4778 42.8284 24.0392 39.5018C27.6004 42.8088 31.1228 44.7068 33.8132 44.7068C34.6352 44.7068 35.3788 44.5308 36.0244 44.159C38.7738 42.574 39.3902 37.6332 37.9714 31.43C44.0376 29.5614 48 26.548 48 23.378ZM35.2614 16.852C34.8994 18.1141 34.4492 19.4154 33.9404 20.7166C33.5394 19.934 33.1186 19.1512 32.6588 18.3685C32.2088 17.5858 31.7294 16.8227 31.25 16.0791C32.6392 16.2845 33.9796 16.5389 35.2614 16.852ZM30.7802 27.272C30.0172 28.5928 29.2344 29.845 28.4224 31.0094C26.9646 31.1366 25.4872 31.205 24 31.205C22.5226 31.205 21.0452 31.1366 19.5972 31.0192C18.7852 29.8548 17.9927 28.6124 17.2295 27.3012C16.4859 26.0196 15.8108 24.7184 15.1945 23.4072C15.8011 22.0962 16.4859 20.7852 17.2197 19.5035C17.9829 18.1826 18.7656 16.9303 19.5777 15.766C21.0354 15.6388 22.5128 15.5703 24 15.5703C25.4774 15.5703 26.9548 15.6388 28.4028 15.7562C29.2148 16.9205 30.0074 18.1631 30.7704 19.4741C31.514 20.7558 32.1892 22.057 32.8056 23.3682C32.1892 24.6792 31.514 25.9902 30.7802 27.272ZM33.9404 26C34.4688 27.311 34.9188 28.622 35.2906 29.894C34.009 30.207 32.6588 30.4712 31.2596 30.6768C31.739 29.9234 32.2186 29.1504 32.6686 28.358C33.1186 27.5752 33.5394 26.7828 33.9404 26ZM24.0196 36.4394C23.1096 35.5002 22.1998 34.4534 21.2996 33.3086C22.1802 33.3478 23.0804 33.377 23.9902 33.377C24.91 33.377 25.8198 33.3576 26.7102 33.3086C25.8296 34.4534 24.9196 35.5002 24.0196 36.4394ZM16.7403 30.6768C15.351 30.4712 14.0106 30.2168 12.7289 29.9038C13.0909 28.6416 13.541 27.3404 14.0497 26.0392C14.4509 26.8218 14.8716 27.6046 15.3314 28.3872C15.7913 29.17 16.2609 29.9332 16.7403 30.6768ZM23.9706 10.3163C24.8806 11.2556 25.7904 12.3025 26.6906 13.4472C25.81 13.4081 24.91 13.3787 24 13.3787C23.0804 13.3787 22.1704 13.3983 21.28 13.4472C22.1606 12.3025 23.0706 11.2556 23.9706 10.3163ZM16.7305 16.0791C16.2511 16.8324 15.7717 17.6054 15.3216 18.3979C14.8716 19.1806 14.4509 19.9633 14.0497 20.746C13.5214 19.435 13.0713 18.1239 12.6996 16.852C13.9812 16.5487 15.3314 16.2845 16.7305 16.0791ZM7.87608 28.3286C4.41256 26.8512 2.17204 24.914 2.17204 23.378C2.17204 21.8418 4.41256 19.8948 7.87608 18.4272C8.7175 18.0652 9.63718 17.7424 10.5862 17.4391C11.1439 19.3567 11.8777 21.3526 12.7876 23.3974C11.8875 25.4326 11.1635 27.4186 10.6156 29.3266C9.64696 29.0232 8.72728 28.6906 7.87608 28.3286ZM13.1398 42.3098C11.8092 41.5466 11.232 38.6408 11.682 34.9034C11.7896 33.9836 11.9658 33.015 12.181 32.027C14.0987 32.4966 16.1924 32.8586 18.3938 33.0934C19.7146 34.9034 21.0844 36.547 22.464 37.9854C19.2744 40.9498 16.2805 42.574 14.2454 42.574C13.8051 42.5642 13.4333 42.4762 13.1398 42.3098ZM36.3474 34.8544C36.8072 38.592 36.2398 41.4978 34.9188 42.2706C34.6254 42.4468 34.2438 42.525 33.7938 42.525C31.7684 42.525 28.7648 40.9108 25.5752 37.9658C26.945 36.5276 28.3148 34.8936 29.616 33.0836C31.8272 32.8488 33.921 32.4868 35.8386 32.0074C36.0636 32.9956 36.2398 33.9446 36.3474 34.8544ZM40.1142 28.3286C39.2728 28.6906 38.353 29.0134 37.404 29.3168C36.8464 27.3992 36.1126 25.4032 35.2026 23.3584C36.1028 21.3232 36.8268 19.3371 37.3746 17.4293C38.3432 17.7326 39.263 18.0652 40.124 18.4272C43.5874 19.9046 45.828 21.8418 45.828 23.378C45.8182 24.914 43.5776 26.861 40.1142 28.3286Z" fill="black"/>
<path d="M23.9902 27.8492C26.4596 27.8492 28.4614 25.8474 28.4614 23.378C28.4614 20.9084 26.4596 18.9066 23.9902 18.9066C21.5208 18.9066 19.519 20.9084 19.519 23.378C19.519 25.8474 21.5208 27.8492 23.9902 27.8492Z" fill="black"/>
</svg>