<svg width="48" height="48" viewBox="0 0 48 48" fill="none" xmlns="http://www.w3.org/2000/svg">
<path fill-rule="evenodd" clip-rule="evenodd" d="M43.8606 18.2451C43.4705 18.6507 43.0511 19.0218 42.6072 19.3564C43.7035 20.1162 44.6534 21.0787 45.4019 22.199C46.5745 23.954 47.2005 26.0173 47.2005 28.128C47.2005 29.5295 46.9244 30.9172 46.3881 32.212C45.8518 33.5068 45.0657 34.6833 44.0747 35.6742C43.0837 36.6652 41.9072 37.4513 40.6124 37.9876C39.3177 38.524 37.9299 38.8 36.5285 38.8C34.4177 38.8 32.3544 38.1741 30.5994 37.0014C30.3885 36.8605 30.1831 36.7124 29.9836 36.5575V45.072C29.9794 47.8629 28.8688 50.5382 26.8954 52.5117C24.9219 54.4852 22.2465 55.5957 19.4556 55.6C18.0375 55.6552 16.6228 55.4236 15.2963 54.9191C13.9698 54.4145 12.7588 53.6473 11.7359 52.6635C10.713 51.6797 9.89921 50.4995 9.34335 49.1937C8.78749 47.8878 8.50098 46.4832 8.50098 45.064C8.50098 43.6447 8.78749 42.2401 9.34335 40.9343C9.89921 39.6284 10.713 38.4482 11.7359 37.4644C12.1328 37.0827 12.558 36.7335 13.0074 36.4197C12.6124 36.1232 12.2366 35.7977 11.8834 35.4444C9.909 33.47 8.7998 30.7922 8.7998 28C8.7998 25.2078 9.909 22.5299 11.8834 20.5556C12.3393 20.0997 12.8327 19.6899 13.3563 19.3293C12.9257 19.0018 12.5184 18.6398 12.1388 18.2451C10.2496 16.2808 9.19434 13.6614 9.19434 10.936C9.19434 8.21068 10.2496 5.5912 12.1388 3.62692C14.028 1.66264 16.6044 0.506168 19.3277 0.400024H27.9998H36.6717C39.395 0.506168 41.9714 1.66264 43.8606 3.62692C45.7498 5.5912 46.805 8.21068 46.805 10.936C46.805 13.6614 45.7498 16.2808 43.8606 18.2451ZM26.0006 4.40002H19.3277C17.6502 4.48305 16.0688 5.2079 14.9109 6.42453C13.753 7.64117 13.1072 9.25645 13.1072 10.936C13.1072 12.6156 13.753 14.2309 14.9109 15.4475C16.0686 16.664 17.6497 17.3888 19.3269 17.472H19.3278L19.3402 17.472H25.9026L26.0006 4.40002ZM29.8709 17.472L29.9689 4.40002H36.6717C38.3492 4.48305 39.9306 5.2079 41.0885 6.42453C42.2464 7.64117 42.8922 9.25645 42.8922 10.936C42.8922 12.6156 42.2464 14.2309 41.0885 15.4475C39.9715 16.6211 38.4605 17.3371 36.8492 17.4608C36.5477 17.4517 36.2456 17.4555 35.9437 17.472H29.8709ZM25.8718 21.472V27.5556C25.8513 27.9374 25.8514 28.3195 25.8718 28.7003V34.528H19.466L19.4556 34.528C19.3055 34.5221 19.1555 34.5195 19.0055 34.52C17.3915 34.4403 15.8599 33.764 14.7118 32.616C13.4876 31.3917 12.7998 29.7313 12.7998 28C12.7998 26.2687 13.4876 24.6082 14.7118 23.384C15.9358 22.16 17.5958 21.4723 19.3267 21.472L19.3277 21.472H25.8718ZM29.9858 29.4515C29.9292 29.1681 29.8912 28.8824 29.8718 28.5962V27.6919C29.9205 26.9746 30.0851 26.266 30.3628 25.5944C30.8673 24.3744 31.7225 23.3314 32.82 22.5976C33.9125 21.8671 35.1963 21.4756 36.5103 21.472H36.5467C38.3069 21.4768 39.9941 22.177 41.2406 23.4205C42.4914 24.6683 43.1962 26.3612 43.2005 28.128C43.2036 29.4483 42.815 30.7398 42.0838 31.8391C41.3526 32.9384 40.3117 33.7961 39.0928 34.3035C37.874 34.811 36.5319 34.9454 35.2366 34.6897C33.9414 34.4341 32.751 33.7999 31.8163 32.8675C30.8816 31.935 30.2446 30.7462 29.9858 29.4515ZM19.415 38.528C18.1342 38.5328 16.8826 38.9134 15.8156 39.623C14.7374 40.3402 13.8961 41.3611 13.3984 42.5566C12.9006 43.752 12.7687 45.0683 13.0194 46.3388C13.2701 47.6093 13.8921 48.7768 14.8067 49.6936C15.7212 50.6104 16.8872 51.2352 18.1571 51.489C19.4269 51.7428 20.7435 51.6142 21.9402 51.1193C23.1369 50.6245 24.1599 49.7858 24.8797 48.7093C25.5994 47.6328 25.9836 46.3669 25.9836 45.072V38.528H19.415Z" fill="black"/>
</svg>
